<?xml version="1.0" standalone="no"?>
<!DOCTYPE svg PUBLIC "-//W3C//DTD SVG 20010904//EN"
 "http://www.w3.org/TR/2001/REC-SVG-20010904/DTD/svg10.dtd">
<svg version="1.0" xmlns="http://www.w3.org/2000/svg"
 width="100.000000pt" height="100.000000pt" viewBox="0 0 100.000000 100.000000"
 preserveAspectRatio="xMidYMid meet">
<metadata>
Created by potrace 1.11, written by Peter Selinger 2001-2013
</metadata>
<g transform="translate(0.000000,100.000000) scale(0.100000,-0.100000)"
fill="#000000" stroke="none">
<path d="M267 894 c-4 -4 -7 -184 -7 -401 l0 -393 191 0 c221 0 255 7 315 65
88 84 85 242 -5 318 -18 15 -43 30 -57 33 -29 7 -30 15 -4 32 65 41 81 194 27
266 -54 70 -90 80 -282 84 -94 2 -173 0 -178 -4z m290 -149 c28 -20 46 -75 34
-106 -15 -40 -47 -62 -101 -67 l-50 -5 0 97 0 96 48 0 c26 0 57 -7 69 -15z
m43 -330 c56 -29 67 -93 24 -144 -25 -30 -29 -31 -105 -31 l-79 0 0 95 0 95
65 0 c39 0 78 -6 95 -15z"/>
</g>
</svg>
